<?xml version="1.0" ?><svg id="icons" viewBox="0 0 158.52 155.03" xmlns="http://www.w3.org/2000/svg"><defs><style>.cls-1{fill:#fff399;}.cls-2{fill:#fee000;}.cls-3{fill:#fbc011;}.cls-4{fill:#ee3d8c;}</style></defs><title/><path class="cls-1" d="M148.58,84.22c-.38-9.7.3-21.38-.31-31-.58-9.13,1.79-16.42-1.75-25.1-6-14.69-20.18-20-35.2-19.5C89.59,9.27,67.38,10.41,44.89,10,23.15,9.52,12.21,21.77,12.12,40.07c-.08,19.34,1.13,47.15,2,66.48.46,9.89-.61,19.57,5.2,28.1,4.76,7,13.42,12.11,21.8,13.62,8.76,1.58,24.91-1.8,45.36-4.33,26-3.22,43.19,4.28,56.84-13.88C152.72,117.57,149.16,99,148.58,84.22Z"/><path d="M154.7,16.33A25.56,25.56,0,0,0,146,5.68C138.27.14,129.7.36,120.6.53l-15,.29C90.51,1.11,75.48.14,60.41.75c-9.53.38-19,0-28.55.33S13.76,5.32,8.14,13.21s-5.25,17.07-5,26.3c.16,7,.35,14,.44,21,.15,11.77.44,23.54.19,35.32-.13,5.78-.55,11.54-1.1,17.29C2.11,118.52,1.23,124,2,129.42a26.34,26.34,0,0,0,19.53,22c5.18,1.38,10.45.91,15.75.78,5.7-.13,11.21.63,16.89.87,11.66.48,23.52.65,35.19.24,5.67.25,11.33.73,17,1.07a131.91,131.91,0,0,0,17.67-.27c4.08-.3,8.26-.52,12.14-1.93,8.92-3.21,16.78-10.92,19.17-20.22,1-3.77.91-7.8,1-11.67.13-5.7.05-11.4.11-17.1.13-12.1-.49-24.15-.53-36.24,0-11.54.9-23.09.92-34.65C156.83,26.81,156.88,21.49,154.7,16.33ZM151,45.55c-.38,12-.92,23.77-.58,35.75.33,11.54.14,23.09-.06,34.64-.16,9.73.33,19.3-7.56,26.42-5.54,5-12.31,5.32-19.31,5.41-11.39.14-22.76.09-34.15.48-5.63,0-11.25-.36-16.86-.75-11.58-.81-23.16-.84-34.76-.53-5.56.15-11.14.58-16.44-1.46a20.93,20.93,0,0,1-10.54-8.73C7.83,131.92,7.46,126.46,7.9,121c.47-5.87,1.17-11.71,1.5-17.59.33-6.07.38-12.16.41-18.24,0-9.76-.25-19.53-.27-29.29,0-8.5-.2-17-.16-25.51s3.17-15.79,10.5-20.42c5.06-3.2,10.32-3.35,16.05-3.47,4.63-.1,9.18.58,13.8.44,4.07-.13,8.13-.32,12.19-.52,14.67-.73,29.33.21,44,0l14.74-.17c9.61-.1,19.34-.24,25.93,8,3.48,4.35,4.38,9.15,4.49,14.57C151.2,34.38,151.12,40,151,45.55Z"/><path class="cls-2" d="M117.34,101.05H93.47v11.64h33v-2.2A9.18,9.18,0,0,0,117.34,101.05Z"/><path class="cls-3" d="M124,114.49H90a15.5,15.5,0,0,1-10.77-4.35L53.7,83.65H57s16.53,16.69,21.51,21.45c7.94,7.58,19.29-4.77,11.11-13L65.84,68.37c-3.14-3.14-8.49-4.07-13.28-4.07l-31.89,1v46l13-3,35.41,22.13a20,20,0,0,0,9.51,2.4h45.13a9.38,9.38,0,0,0,9.47-8.56A9.17,9.17,0,0,0,124,114.49Z"/><path class="cls-4" d="M119.46,20a18.86,18.86,0,0,0-13.54,5.7A19,19,0,0,0,73.42,39c0,24,32.5,40.6,32.5,40.6S138.42,63,138.42,39A19,19,0,0,0,119.46,20Z"/><path d="M139.4,38.31c-2.16-7.23-7.38-13.85-14.54-16.55a20.18,20.18,0,0,0-11.19-1,22,22,0,0,0-5.46,1.9,22.78,22.78,0,0,0-2.48,1.47c-.53.36-1,.74-1.54,1.14-.46.8-.92.83-1.39.07-1.46-.54-2.91-2.05-4.36-2.78a26.58,26.58,0,0,0-5-1.91,22.56,22.56,0,0,0-7-.69,19.2,19.2,0,0,0-15,8.73C67.94,33.91,67,39.86,67.3,46c.4,7,3.67,13.14,7.82,18.73A67.88,67.88,0,0,0,92.47,81c3,1.94,6.53,4.58,9.93,5.61,2.8.85,6.3-2.52,8.53-4,7.83-5.09,15.27-11.12,20.9-18.63C136.87,57.29,141.94,46.94,139.4,38.31Zm-4.62,5.75c-.73,13.54-12.31,24.78-22.35,32.6-1.3,1-2.63,2-4,2.92s-3.12,2.62-4.59,2.93C101.7,83,97,79,95.17,77.74a65.7,65.7,0,0,1-15-13.95c-7.4-9.67-13.36-26.47-1.3-34.91a18.74,18.74,0,0,1,15.27-3.07c3.29.85,5,2.67,7.68,4.45s4.21-1.08,6.35-2.46c6.26-4,14.06-3.31,19.94,1.11C133.07,32.64,134.94,38.05,134.78,44.06Z"/><path d="M139.87,116.81a12,12,0,0,0-8.11-7.57c-.64-.18-2.39-.11-2.82-.42s-.46-1.33-.67-2a10.69,10.69,0,0,0-3.08-4.86c-2.43-2.21-5.37-2.74-8.53-2.61-3.4.13-6.81,0-10.21-.09-2.26-.08-4.52-.18-6.78-.27a21.6,21.6,0,0,1-3.12-.12c-1.43-.27-1.2-.73-1.91-2a21.43,21.43,0,0,0-4.06-4.75l-5.82-5.83C79.88,81.36,75,76.48,70.1,71.62,65,66.52,59.8,63.09,52.28,63c-8.87-.08-17.63-.91-26.52-.67-2.67.08-7.52-.76-7.84,3a33.67,33.67,0,0,0,.22,4.37c.17,3.43.34,6.85.43,10.28.14,5.41.1,10.78-.25,16.19-.16,2.5-.35,5-.4,7.5-.05,2.28-.9,8.31,1.36,9.8,1.46,1,3.67-.43,5.09-.93,2.1-.74,4.25-1.26,6.4-1.81a10.78,10.78,0,0,1,2.54-.65c1.62.08,4.09,2.09,5.52,2.87,1.92,1,3.84,2.12,5.75,3.18,7.74,4.29,15.37,8.76,23.11,13.05,6.42,3.56,13.16,3,20.23,2.95,8.57,0,17.15.15,25.72.43,7.51.25,18.27,2.46,23.83-3.87A12.15,12.15,0,0,0,139.87,116.81Zm-26.64-13c4.45.14,9.72-.48,10.88,5.27a67.07,67.07,0,0,1-9.51-.06,135,135,0,0,0-20.51-.23A11.67,11.67,0,0,0,95.77,105c.22-1,0-1.24.8-1.6s2,.06,2.8.08c1.91,0,3.82.12,5.74.16Zm22.22,18.9c-2.4,7.6-13.42,5.3-19.61,5.12-9.57-.27-19.14-.49-28.71-.51-3.34,0-6.89.24-10.18-.31-3.57-.59-6.52-2.18-9.65-3.84-4.84-2.58-9.69-5.13-14.53-7.7-3.6-1.91-7.17-3.87-10.74-5.82-2.5-1.36-6.1-4.3-9.05-4-3.39.3-7.46,1.83-10.62,3-.37-5.72.39-11.45.7-17.15.21-3.92.11-7.84.05-11.76-.07-4.18-.27-8.35-.43-12.52,7.85-.27,15.6,0,23.44.3,6.88.29,13,0,18.29,5.09,3.72,3.59,7.3,7.35,10.94,11q6.24,6.3,12.45,12.61a11.35,11.35,0,0,1,2.87,3.63,7.3,7.3,0,0,1-3,8.66c-4.49,2.63-7.95-.72-10.88-3.75C70.35,98,63.81,91.33,57,84.94a20.44,20.44,0,0,0-2.82-2.61c-2.41-1.5-4.28,1-2.69,3.08C53.35,87.86,56,90,58.21,92.14q6.06,6.08,12.1,12.15c1.73,1.74,3.44,3.51,5.2,5.23A14.15,14.15,0,0,0,80.69,113c2.57.9,4.74.45,7.33.3,6.86-.39,13.85.25,20.73.24,5,0,10-.1,15-.24,2.39-.07,5.09-.5,7.34.42A7.5,7.5,0,0,1,135.45,122.66Z"/></svg>